PathFileType  4	(X/Y/Z) C:\Users\antoi\Documents\MyRepositories\mobilecap\ResultsAnalysis
DataRate	CameraRate	NumFrames	NumMarkers	Units	OrigDataRate	OrigDataStartFrame	OrigNumFrames
100.0	100.0	4	51	mm	100.0	102	135
Frame#	Time	r_knee			r_shank_antsup			r_ankle			r_calc			r_5meta			r_toe			L_knee			L_shank_antsup			L_ankle			L_calc			L_5meta			L_toe			r_sh2			r_sh3			r_sh4			L_sh2			L_sh3			r_thigh1			r_thigh2			r_thigh3			r_thigh4			r_thigh5			L_thigh1			L_thigh2			L_thigh3			L_thigh4			r.ASIS			r.PSIS			L.ASIS			L.PSIS			C7			R_Shoulder			L_Shoulder			R_Sternum			L_Sternum			R_humerus			R_elbow_med			R_elbow_lat			R_forearm			R_wrist_radius			R_wrist_ulna			L_humerus			L_elbow_med			L_elbow_lat			L_forearm			L_wrist_radius			L_wrist_ulna			R_HJC			L_HJC			R_HJC_reg			L_HJC_reg			
		X1	Y1	Z1	X2	Y2	Z2	X3	Y3	Z3	X4	Y4	Z4	X5	Y5	Z5	X6	Y6	Z6	X7	Y7	Z7	X8	Y8	Z8	X9	Y9	Z9	X10	Y10	Z10	X11	Y11	Z11	X12	Y12	Z12	X13	Y13	Z13	X14	Y14	Z14	X15	Y15	Z15	X16	Y16	Z16	X17	Y17	Z17	X18	Y18	Z18	X19	Y19	Z19	X20	Y20	Z20	X21	Y21	Z21	X22	Y22	Z22	X23	Y23	Z23	X24	Y24	Z24	X25	Y25	Z25	X26	Y26	Z26	X27	Y27	Z27	X28	Y28	Z28	X29	Y29	Z29	X30	Y30	Z30	X31	Y31	Z31	X32	Y32	Z32	X33	Y33	Z33	X34	Y34	Z34	X35	Y35	Z35	X36	Y36	Z36	X37	Y37	Z37	X38	Y38	Z38	X39	Y39	Z39	X40	Y40	Z40	X41	Y41	Z41	X42	Y42	Z42	X43	Y43	Z43	X44	Y44	Z44	X45	Y45	Z45	X46	Y46	Z46	X47	Y47	Z47	X48	Y48	Z48	X49	Y49	Z49	X50	Y50	Z50	X51	Y51	Z51	

102	1.01000000	1258.65678	511.82593	-64.57529	1317.49008	460.94822	-79.02410	1341.26269	115.74117	-77.71404	1286.60754	62.16764	-113.14218	1459.84426	89.02679	-49.49440	1494.86432	134.13837	-103.08864	1003.34246	490.99374	-372.87449	1008.42343	392.68710	-382.71203	868.36090	108.02408	-362.75107	797.83758	71.39261	-315.03571	959.89672	41.38447	-415.60940	1009.74655	62.52186	-362.33979	1322.48855	346.72166	-54.21700	1238.02552	453.69914	-53.79426	1247.22137	341.03607	-50.76984	924.66423	426.14554	-381.25605	890.53371	308.79147	-388.39387	1179.61098	821.52654	-38.62304	1224.02201	716.55078	-42.49898	1178.27778	674.33736	-16.91013	1074.95109	776.37212	-28.19011	1123.99615	670.32504	-34.27128	1086.81871	749.16757	-413.79407	1071.92225	614.76072	-390.84651	978.76805	764.07823	-376.90635	968.08291	624.92460	-361.82031	1157.44330	963.13679	-90.07114	974.64745	1000.40617	-173.37933	1175.19574	936.54541	-338.53802	972.77047	1005.68126	-273.75010	1015.87461	1412.97192	-305.47192	1082.05392	1404.83074	-111.20248	1114.34132	1343.13724	-457.99530	1146.10043	1373.09532	-258.33963	1156.31007	1365.43499	-298.76550	1055.45257	1293.62094	-17.18960	967.97223	1088.10082	-14.14529	972.20175	1122.86133	51.32245	1066.31318	1024.74031	100.79218	1132.08675	911.30833	137.20668	1103.61080	902.25109	157.04703	1159.77167	1230.75728	-498.95501	1164.00939	995.03067	-434.40227	1200.51323	1020.47044	-501.48764	1298.86892	971.02610	-463.01479	1407.19451	860.37950	-425.75513	1393.81032	844.27138	-454.99261	1080.29118	883.77568	-109.60225	1087.88666	871.01036	-315.53815	1095.67970	870.80668	-127.02706	1092.59284	879.48270	-292.10997	
103	1.02000000	1267.63903	509.22581	-64.23957	1328.64132	461.06687	-78.82581	1366.70457	116.82857	-72.70225	1313.79825	60.31211	-106.68259	1486.51444	94.94569	-44.91949	1519.41754	140.33488	-99.62735	1006.84169	490.45795	-372.34682	1011.09384	392.08965	-382.35344	868.84130	108.37154	-362.67398	797.98707	71.83574	-315.05617	959.95328	41.32556	-415.68757	1009.67294	62.22013	-362.35131	1338.29391	347.49696	-52.35102	1249.57353	451.16509	-53.03143	1263.26246	338.92853	-48.46276	927.61031	426.17300	-381.13373	892.60758	309.07168	-388.30266	1189.68388	818.33489	-38.29940	1232.94684	712.83544	-42.71810	1186.82058	671.10257	-17.06956	1084.62261	774.27627	-28.16160	1132.09383	667.41307	-34.60057	1095.35921	746.98102	-413.43008	1077.81122	612.93369	-390.04191	987.69468	764.05376	-376.44783	974.09364	625.15437	-361.24033	1169.02343	960.33503	-89.30562	985.87897	997.86948	-172.49831	1186.32380	933.54708	-337.97500	984.07165	1003.21072	-272.96136	1027.36803	1410.77766	-302.87150	1092.80348	1401.22575	-108.25742	1127.05200	1342.05386	-455.50225	1157.45069	1370.73123	-255.49569	1168.04990	1363.44133	-295.85542	1065.40155	1289.59100	-15.01553	977.19145	1084.31340	-13.16216	981.06440	1119.00845	52.25075	1074.33242	1020.71138	102.60149	1139.65080	907.13520	139.81316	1110.81184	898.02517	159.02175	1173.96134	1230.53050	-496.31436	1178.22639	993.77933	-435.44516	1216.56732	1020.85235	-500.74092	1314.48961	973.06514	-460.07826	1424.36055	864.93249	-421.03678	1412.15520	848.88823	-450.48132	1091.56170	881.10588	-108.82218	1098.88432	868.23083	-314.76101	1106.85906	867.85999	-126.39560	1103.88742	876.64345	-291.60129	
104	1.03000000	1277.18376	506.83183	-63.62026	1339.89710	460.82846	-78.53849	1389.34704	117.81161	-68.21494	1337.83036	58.93640	-100.88792	1510.00005	99.80601	-40.92249	1541.16415	145.24693	-96.66315	1011.02207	489.75692	-371.86394	1014.35995	391.30316	-381.98646	869.38625	108.84633	-362.67848	798.19255	72.44359	-315.13376	960.02794	41.25402	-415.76607	1009.65300	61.88745	-362.39210	1353.38210	347.96537	-50.58556	1261.32770	448.85429	-51.86246	1278.67029	337.09526	-45.94802	931.21864	426.15356	-381.05288	895.14462	309.36123	-388.26013	1199.83298	815.28402	-37.91523	1242.16313	709.36367	-42.77462	1195.73765	668.03418	-17.02668	1094.48367	772.15471	-27.93225	1140.55518	664.48203	-34.80329	1104.18815	744.73554	-413.10502	1084.09024	611.00150	-389.35781	996.93413	763.77876	-375.73117	980.58678	625.13093	-360.62599	1180.69580	957.43827	-88.41782	997.15310	995.17147	-171.45251	1197.48236	930.42188	-337.31116	995.39634	1000.57016	-272.00342	1038.89514	1408.44342	-300.07604	1103.65105	1397.45493	-105.14572	1139.68326	1340.77845	-452.91509	1168.94026	1368.24141	-252.51211	1179.84387	1361.27049	-292.84207	1075.53889	1285.34423	-12.73566	986.87608	1080.18420	-12.11505	990.37714	1114.81261	53.22850	1082.68865	1016.30589	104.53487	1147.44516	902.57471	142.69630	1118.18734	893.37936	161.11991	1187.93097	1230.06787	-493.64485	1192.46626	992.42085	-436.23254	1232.46086	1021.08752	-499.76614	1329.88223	974.74904	-457.10820	1441.18271	869.00785	-416.45502	1429.98553	853.03341	-446.02683	1102.93940	878.31490	-107.89390	1109.93192	865.30654	-313.83579	1118.13895	864.77822	-125.62705	1115.25061	873.65593	-290.97011	
105	1.04000000	1287.41958	504.68026	-62.70101	1351.27976	460.14789	-78.05864	1408.88439	118.30404	-64.37286	1358.31692	57.78854	-96.00011	1530.07662	103.01289	-37.62552	1559.92982	148.37624	-94.22583	1015.97049	488.86957	-371.40170	1018.28061	390.33036	-381.58026	870.02587	109.47924	-362.75165	798.47876	73.27091	-315.26787	960.12471	41.17962	-415.84592	1009.70432	61.52642	-362.46604	1367.62338	347.92368	-48.89178	1273.22457	446.73672	-50.33779	1293.23254	335.41003	-43.35687	935.54209	426.09709	-380.96868	898.18925	309.67386	-388.23657	1210.22140	812.55508	-37.51018	1251.93274	706.35467	-42.64644	1205.34463	665.32193	-16.71928	1104.73247	770.10060	-27.40971	1149.77121	661.78752	-34.66237	1113.31708	742.46476	-412.78458	1090.81367	608.98396	-388.76962	1006.48950	763.26289	-374.74626	987.60529	624.82900	-359.95995	1192.44048	954.48548	-87.42885	1008.48567	992.41656	-170.24598	1208.66414	927.22341	-336.55907	1006.75927	997.83837	-270.87128	1050.47919	1406.03382	-297.08647	1114.62600	1393.59600	-101.87780	1152.25980	1339.39347	-450.22325	1180.58735	1365.67046	-249.39865	1191.72208	1358.97754	-289.72860	1085.88149	1280.97064	-10.36385	997.06926	1075.79506	-11.03872	1000.15117	1110.34409	54.23590	1091.37004	1011.56435	106.57684	1155.42979	897.66900	145.80504	1125.70506	888.35159	163.31180	1201.67115	1229.43494	-490.99050	1206.69070	991.02854	-436.70041	1248.12176	1021.20876	-498.58339	1345.02803	976.11272	-454.12375	1457.63656	872.60636	-412.03104	1447.24926	856.67341	-441.72600	1114.40280	875.46366	-106.83009	1121.00359	862.30667	-312.77565	1129.47399	861.66775	-124.71794	1126.63501	870.58489	-290.20927	
